<svg width="233" height="244" viewBox="0 0 233 244" fill="none" xmlns="http://www.w3.org/2000/svg">
<path fill-rule="evenodd" clip-rule="evenodd" d="M116.532 222.511C169.108 222.511 211.729 179.889 211.729 127.313C211.729 74.7366 169.108 32.1151 116.532 32.1151C63.9554 32.1151 21.3339 74.7366 21.3339 127.313C21.3339 179.889 63.9554 222.511 116.532 222.511Z" stroke="#3AD29F" stroke-width="0.641063" stroke-dasharray="3.85 3.85"/>
<path fill-rule="evenodd" clip-rule="evenodd" d="M116.532 242.704C180.26 242.704 231.923 191.042 231.923 127.313C231.923 63.5842 180.26 11.9218 116.532 11.9218C52.8028 11.9218 1.14034 63.5842 1.14034 127.313C1.14034 191.042 52.8028 242.704 116.532 242.704Z" stroke="#3AD29F" stroke-width="0.641063" stroke-dasharray="3.85 3.85"/>
<path d="M193.76 164.075C193.764 150.64 183.543 139.41 170.167 138.152C156.792 136.895 144.656 146.022 142.155 159.222L62.1535 157.052L63.0317 170.796C63.0317 170.796 51.624 197.118 111.579 204.132V230.736H180.891V186.502C188.856 181.839 193.753 173.304 193.76 164.075Z" fill="url(#paint0_linear_0_137)"/>
<path d="M65.7787 171.373C65.7787 171.373 54.855 196.58 112.272 203.305V228.793H178.651V161.293L64.926 158.209L65.7787 171.373Z" fill="#FFCBB4"/>
<path d="M98.9536 66.1844C95.3505 71.87 87.8321 73.5785 82.1257 70.0083L46.4859 46.523C40.8002 42.9199 39.0918 35.4015 42.6619 29.6951C46.2645 24.0173 53.7733 22.3097 59.477 25.8712L95.1169 49.3565C100.807 52.9554 102.521 60.4747 98.9536 66.1844Z" fill="url(#paint1_linear_0_137)"/>
<path d="M96.9793 64.9023C93.6301 70.1873 86.6416 71.7754 81.3373 68.457L48.1976 46.6096C42.9127 43.2604 41.3245 36.272 44.6429 30.9677C47.9921 25.6828 54.9805 24.0946 60.2848 27.413L93.4181 49.2476C98.7131 52.5952 100.305 59.5937 96.9793 64.9023Z" fill="#FFCBB4"/>
<path d="M166.05 189.861C179.818 189.861 190.978 178.701 190.978 164.934C190.978 151.167 179.818 140.006 166.05 140.006C152.283 140.006 141.123 151.167 141.123 164.934C141.123 178.701 152.283 189.861 166.05 189.861Z" fill="#FFCBB4"/>
<path d="M161.563 0.520416H66.0703C63.9018 0.520416 62.1438 2.27837 62.1438 4.44692V183.13C62.1438 185.299 63.9018 187.057 66.0703 187.057H161.563C163.732 187.057 165.49 185.299 165.49 183.13V4.44692C165.49 2.27837 163.732 0.520416 161.563 0.520416Z" fill="url(#paint2_linear_0_137)"/>
<path d="M159.717 3.04297H67.9102C65.4956 3.04297 63.5382 5.0004 63.5382 7.41502V180.169C63.5382 182.583 65.4956 184.541 67.9102 184.541H159.717C162.131 184.541 164.089 182.583 164.089 180.169V7.41502C164.089 5.0004 162.131 3.04297 159.717 3.04297Z" fill="white"/>
<path d="M139.075 7.59451C138.474 11.5717 135.061 14.5158 131.039 14.5276H96.3125C92.2914 14.5142 88.8808 11.5705 88.28 7.59451H69.8815C68.8684 7.59451 67.8966 7.99549 67.18 8.71151C66.4634 9.42753 66.0607 10.399 66.0607 11.412V176.165C66.0607 177.178 66.4617 178.15 67.1777 178.867C67.8937 179.583 68.8652 179.986 69.8783 179.986H157.749C158.762 179.986 159.734 179.585 160.45 178.869C161.167 178.153 161.569 177.181 161.569 176.168V11.4152C161.569 10.4022 161.168 9.43039 160.452 8.71378C159.736 7.99716 158.765 7.59451 157.752 7.59451H139.075Z" fill="#E9ECFF"/>
<path d="M124.519 9.76459H103.393C103.039 9.76459 102.752 10.0516 102.752 10.4056V10.5242C102.752 10.8783 103.039 11.1653 103.393 11.1653H124.519C124.873 11.1653 125.16 10.8783 125.16 10.5242V10.4056C125.16 10.0516 124.873 9.76459 124.519 9.76459Z" fill="#DBDBDB"/>
<path d="M129.92 11.3698C130.497 11.3698 130.964 10.9022 130.964 10.3255C130.964 9.74878 130.497 9.28125 129.92 9.28125C129.343 9.28125 128.876 9.74878 128.876 10.3255C128.876 10.9022 129.343 11.3698 129.92 11.3698Z" fill="#DBDBDB"/>
<path d="M182.164 169.331C174.929 171.005 169.964 166.286 168.291 159.055L151.668 97.3305C150.014 90.0713 154.532 82.8387 161.781 81.1405C169.04 79.4865 176.273 84.0042 177.971 91.2532L191.536 154.571C193.209 161.805 189.395 167.658 182.164 169.331Z" fill="url(#paint3_linear_0_137)"/>
<path d="M176.106 92.7642C174.696 86.6601 168.604 82.8551 162.5 84.2655C156.396 85.6758 152.591 91.7675 154.001 97.8716L169.286 164.027C170.697 170.131 176.788 173.936 182.893 172.526C188.997 171.115 192.802 165.024 191.391 158.919L176.106 92.7642Z" fill="#FFCBB4"/>
<path d="M190.872 220.453H95.9951V242.57H190.872V220.453Z" fill="url(#paint4_linear_0_137)"/>
<path d="M188.308 223.017H98.5594V240.326H188.308V223.017Z" fill="#4D8AF0"/>
<path d="M85.1195 132.4C81.5602 138.018 74.1317 139.706 68.4936 136.179L44.5916 120.713C38.9735 117.154 37.285 109.725 40.8125 104.087C44.3718 98.4692 51.8004 96.7807 57.4385 100.308L81.3405 115.774C86.9585 119.333 88.647 126.762 85.1195 132.4Z" fill="url(#paint5_linear_0_137)"/>
<path d="M79.1192 165.136C75.5282 170.805 68.032 172.51 62.3426 168.95L47.5373 158.154C41.8677 154.563 40.1634 147.067 43.723 141.378C47.314 135.708 54.8102 134.004 60.4996 137.564L75.3049 148.362C80.9726 151.953 82.6767 159.447 79.1192 165.136Z" fill="url(#paint6_linear_0_137)"/>
<g opacity="0.5">
<path d="M113.814 122.62C129.735 122.62 142.642 109.713 142.642 93.7918C142.642 77.8703 129.735 64.9633 113.814 64.9633C97.892 64.9633 84.985 77.8703 84.985 93.7918C84.985 109.713 97.892 122.62 113.814 122.62Z" fill="url(#paint7_linear_0_137)"/>
</g>
<path d="M113.814 120.925C128.799 120.925 140.947 108.777 140.947 93.7918C140.947 78.8067 128.799 66.6588 113.814 66.6588C98.8284 66.6588 86.6806 78.8067 86.6806 93.7918C86.6806 108.777 98.8284 120.925 113.814 120.925Z" fill="#69F0AE"/>
<path d="M102.037 90.1699L112.211 99.4973L126.625 78.3006L131.715 82.5412L112.211 107.979L97.7966 91.8687L102.037 90.1699Z" fill="white"/>
<path d="M77.9236 164.331C74.5745 169.616 67.586 171.204 62.2817 167.886L48.4732 157.834C43.1883 154.485 41.6001 147.496 44.9185 142.192C48.2677 136.907 55.2561 135.319 60.5605 138.637L74.3657 148.708C79.6401 152.056 81.2284 159.03 77.9236 164.331Z" fill="#FFCBB4"/>
<path d="M83.8054 131.551C80.4562 136.835 73.4677 138.424 68.1634 135.105L45.675 120.553C40.39 117.204 38.8019 110.215 42.1203 104.911C45.4694 99.6262 52.4579 98.0381 57.7622 101.356L80.2507 115.909C85.5356 119.258 87.1237 126.246 83.8054 131.551Z" fill="#FFCBB4"/>
<path d="M91.2994 99.8178C87.7225 105.461 80.2605 107.156 74.5965 103.613L44.3063 83.8906C38.6636 80.3137 36.9681 72.8517 40.5112 67.1877C44.088 61.545 51.5501 59.8496 57.2141 63.3926L87.5043 83.1149C93.147 86.6918 94.8424 94.1538 91.2994 99.8178Z" fill="url(#paint8_linear_0_137)"/>
<path d="M89.6903 98.7921C86.3411 104.077 79.3527 105.665 74.0483 102.347L45.6781 83.8745C40.3932 80.5254 38.805 73.5369 42.1234 68.2326C45.4726 62.9477 52.461 61.3595 57.7654 64.6779L86.1324 83.1501C91.4184 86.4983 93.0081 93.4869 89.6903 98.7921Z" fill="#FFCBB4"/>
<defs>
<linearGradient id="paint0_linear_0_137" x1="127.962" y1="230.752" x2="127.962" y2="138.041" gradientUnits="userSpaceOnUse">
<stop stop-color="#808080" stop-opacity="0.25"/>
<stop offset="0.54" stop-color="#808080" stop-opacity="0.12"/>
<stop offset="1" stop-color="#808080" stop-opacity="0.1"/>
</linearGradient>
<linearGradient id="paint1_linear_0_137" x1="70.8046" y1="71.877" x2="70.8046" y2="24.0089" gradientUnits="userSpaceOnUse">
<stop stop-color="#808080" stop-opacity="0.25"/>
<stop offset="0.54" stop-color="#808080" stop-opacity="0.12"/>
<stop offset="1" stop-color="#808080" stop-opacity="0.1"/>
</linearGradient>
<linearGradient id="paint2_linear_0_137" x1="113.817" y1="187.054" x2="113.817" y2="0.517214" gradientUnits="userSpaceOnUse">
<stop stop-color="#808080" stop-opacity="0.25"/>
<stop offset="0.54" stop-color="#808080" stop-opacity="0.12"/>
<stop offset="1" stop-color="#808080" stop-opacity="0.1"/>
</linearGradient>
<linearGradient id="paint3_linear_0_137" x1="171.624" y1="169.665" x2="171.624" y2="80.7943" gradientUnits="userSpaceOnUse">
<stop stop-color="#808080" stop-opacity="0.25"/>
<stop offset="0.54" stop-color="#808080" stop-opacity="0.12"/>
<stop offset="1" stop-color="#808080" stop-opacity="0.1"/>
</linearGradient>
<linearGradient id="paint4_linear_0_137" x1="143.44" y1="242.563" x2="143.44" y2="220.447" gradientUnits="userSpaceOnUse">
<stop stop-color="#808080" stop-opacity="0.25"/>
<stop offset="0.54" stop-color="#808080" stop-opacity="0.12"/>
<stop offset="1" stop-color="#808080" stop-opacity="0.1"/>
</linearGradient>
<linearGradient id="paint5_linear_0_137" x1="62.9612" y1="138.022" x2="62.9612" y2="98.4684" gradientUnits="userSpaceOnUse">
<stop stop-color="#808080" stop-opacity="0.25"/>
<stop offset="0.54" stop-color="#808080" stop-opacity="0.12"/>
<stop offset="1" stop-color="#808080" stop-opacity="0.1"/>
</linearGradient>
<linearGradient id="paint6_linear_0_137" x1="61.4227" y1="170.809" x2="61.4227" y2="135.701" gradientUnits="userSpaceOnUse">
<stop stop-color="#808080" stop-opacity="0.25"/>
<stop offset="0.54" stop-color="#808080" stop-opacity="0.12"/>
<stop offset="1" stop-color="#808080" stop-opacity="0.1"/>
</linearGradient>
<linearGradient id="paint7_linear_0_137" x1="113.814" y1="122.62" x2="113.814" y2="64.9601" gradientUnits="userSpaceOnUse">
<stop stop-color="#808080" stop-opacity="0.25"/>
<stop offset="0.54" stop-color="#808080" stop-opacity="0.12"/>
<stop offset="1" stop-color="#808080" stop-opacity="0.1"/>
</linearGradient>
<linearGradient id="paint8_linear_0_137" x1="65.9037" y1="105.475" x2="65.9037" y2="61.5528" gradientUnits="userSpaceOnUse">
<stop stop-color="#808080" stop-opacity="0.25"/>
<stop offset="0.54" stop-color="#808080" stop-opacity="0.12"/>
<stop offset="1" stop-color="#808080" stop-opacity="0.1"/>
</linearGradient>
</defs>
</svg>
